<?xml version="1.0" standalone="no"?>
<!DOCTYPE svg PUBLIC "-//W3C//DTD SVG 20010904//EN"
 "http://www.w3.org/TR/2001/REC-SVG-20010904/DTD/svg10.dtd">
<svg version="1.0" xmlns="http://www.w3.org/2000/svg"
 width="500.000000pt" height="500.000000pt" viewBox="0 0 500.000000 500.000000"
 preserveAspectRatio="xMidYMid meet">

<g transform="translate(0.000000,500.000000) scale(0.100000,-0.100000)"
fill="#000000" stroke="none">
<path d="M0 2500 l0 -2500 2500 0 2500 0 0 2500 0 2500 -2500 0 -2500 0 0
-2500z m2410 2061 c5 -11 10 -26 10 -35 0 -11 -840 -737 -940 -812 -9 -7 -132
-18 -305 -28 -159 -9 -310 -19 -335 -22 l-45 -6 170 164 c94 91 214 204 268
252 101 91 112 113 80 148 -34 38 -61 24 -203 -104 -74 -67 -203 -190 -286
-273 -190 -189 -209 -223 -202 -353 7 -107 22 -147 67 -170 20 -10 43 -33 54
-55 17 -33 18 -44 8 -76 -10 -36 -8 -44 49 -158 71 -143 95 -225 87 -302 -7
-63 -41 -136 -78 -163 -24 -18 -33 -19 -119 -9 -51 6 -95 13 -98 16 -3 3 10
49 28 103 31 88 34 107 34 212 -1 154 -12 192 -64 212 -42 17 -80 67 -80 105
0 13 7 40 16 62 14 35 14 44 -1 102 -19 69 -25 197 -12 243 l8 29 -149 -8
c-147 -7 -150 -6 -165 15 -12 17 -13 28 -5 44 13 27 920 798 950 809 23 7
1042 73 1175 76 62 1 74 -2 83 -18z m-229 -574 l45 -112 65 5 c35 3 150 5 254
5 161 0 206 -4 294 -23 690 -153 1180 -728 1218 -1431 10 -200 -29 -437 -103
-625 -192 -486 -601 -832 -1122 -949 -83 -18 -128 -21 -307 -21 -179 0 -224 3
-307 21 -412 93 -744 319 -974 664 -111 166 -192 368 -230 574 -25 134 -25
400 -1 535 22 115 83 302 131 397 l35 70 -87 6 c-48 3 -105 12 -127 19 l-40
13 3 51 c6 87 -51 180 -123 204 -35 11 -51 39 -61 100 l-6 38 43 6 c24 3 196
15 383 26 299 17 342 22 370 40 17 10 157 127 311 259 154 132 282 240 285
240 3 0 26 -50 51 -112z"/>
<path d="M2385 3741 c-74 -35 -131 -80 -164 -129 -13 -20 -44 -59 -69 -87 -41
-46 -144 -239 -157 -296 -6 -25 -5 -26 77 -38 122 -17 265 -31 331 -31 l57 0
0 305 c0 168 -3 305 -7 305 -5 0 -35 -13 -68 -29z"/>
<path d="M2580 3465 l0 -305 63 0 c132 1 417 37 417 54 0 24 -89 206 -138 282
-67 105 -171 205 -253 244 -35 16 -70 30 -76 30 -10 0 -13 -68 -13 -305z"/>
<path d="M2939 3675 c74 -80 163 -233 220 -377 14 -34 29 -58 38 -58 50 0 313
109 313 129 0 28 -225 193 -344 253 -75 38 -230 98 -252 98 -12 0 -5 -13 25
-45z"/>
<path d="M1825 3298 l-60 -31 30 -13 c49 -21 72 -17 83 14 5 15 13 35 17 45
10 23 0 21 -70 -15z"/>
<path d="M3565 3258 c-50 -32 -134 -69 -238 -103 -53 -18 -99 -34 -101 -36 -3
-2 6 -47 20 -99 31 -121 61 -332 70 -482 l7 -118 309 0 309 0 -6 63 c-20 190
-68 354 -153 520 -48 95 -155 256 -179 270 -4 2 -21 -4 -38 -15z"/>
<path d="M1470 3158 c-58 -17 -116 -35 -129 -41 -16 -8 -42 -48 -77 -117 -82
-162 -130 -329 -149 -512 l-7 -68 310 0 309 0 6 121 c8 145 29 293 63 449 14
63 27 119 27 123 2 10 -201 77 -228 76 -11 -1 -67 -15 -125 -31z"/>
<path d="M1942 3069 c-35 -92 -78 -353 -88 -532 l-7 -117 306 0 307 0 0 309 0
308 -117 7 c-105 6 -245 23 -355 42 -33 6 -39 4 -46 -17z"/>
<path d="M3049 3086 c-8 -8 -230 -35 -352 -42 l-117 -7 0 -308 0 -309 310 0
310 0 0 43 c0 126 -39 401 -78 552 -16 61 -21 70 -43 73 -14 2 -27 1 -30 -2z"/>
<path d="M1115 2233 c27 -273 136 -543 301 -749 l33 -42 105 54 c57 29 143 65
191 79 71 22 85 30 80 43 -33 84 -81 382 -91 560 l-7 122 -309 0 -310 0 7 -67z"/>
<path d="M1854 2184 c10 -178 69 -521 94 -546 4 -4 66 1 138 11 72 11 186 23
252 27 l122 7 0 308 0 309 -307 0 -306 0 7 -116z"/>
<path d="M2580 1991 l0 -308 125 -7 c69 -4 185 -16 257 -26 73 -11 135 -16
139 -12 11 12 57 221 73 332 8 58 18 156 22 218 l7 112 -312 0 -311 0 0 -309z"/>
<path d="M3316 2183 c-4 -65 -14 -165 -22 -223 -14 -94 -58 -313 -70 -345 -3
-8 28 -23 93 -44 54 -18 140 -54 190 -81 l93 -48 34 41 c161 199 274 484 300
755 l6 62 -309 0 -308 0 -7 -117z"/>
<path d="M2232 1550 c-142 -15 -242 -33 -242 -44 0 -6 19 -54 43 -106 102
-227 241 -384 385 -434 l42 -15 0 304 0 305 -77 -1 c-43 -1 -111 -5 -151 -9z"/>
<path d="M2580 1256 l0 -307 23 6 c163 49 318 220 424 469 20 47 34 88 32 90
-10 9 -243 37 -355 43 l-124 6 0 -307z"/>
<path d="M3150 1404 c-52 -134 -140 -280 -224 -373 l-31 -34 30 7 c69 17 233
88 318 139 91 55 257 182 264 203 7 20 -138 87 -273 127 l-51 15 -33 -84z"/>
<path d="M1735 1446 c-104 -38 -195 -82 -195 -95 0 -14 107 -103 200 -166 93
-64 213 -124 323 -161 92 -31 97 -30 60 9 -79 84 -175 244 -233 390 -27 69
-29 69 -155 23z"/>
</g>
</svg>
