<?xml version="1.0" standalone="no"?>
<!DOCTYPE svg PUBLIC "-//W3C//DTD SVG 20010904//EN"
 "http://www.w3.org/TR/2001/REC-SVG-20010904/DTD/svg10.dtd">
<svg version="1.0" xmlns="http://www.w3.org/2000/svg"
 width="500.000000pt" height="500.000000pt" viewBox="0 0 500.000000 500.000000"
 preserveAspectRatio="xMidYMid meet">

<g transform="translate(0.000000,500.000000) scale(0.100000,-0.100000)"
fill="#000000" stroke="none">
<path d="M1738 4540 c-544 -35 -589 -40 -613 -58 -15 -12 -228 -193 -476 -403
-272 -232 -449 -390 -449 -400 0 -37 29 -51 94 -45 33 3 100 8 148 12 l87 6
-9 -34 c-16 -52 -11 -156 9 -243 17 -69 17 -82 5 -99 -21 -30 -18 -99 6 -128
11 -14 37 -33 59 -41 37 -15 39 -18 50 -80 23 -135 9 -279 -39 -391 -11 -27
-17 -53 -12 -58 4 -4 50 -11 100 -14 92 -7 93 -7 122 21 44 42 63 112 58 205
-4 71 -10 88 -73 216 -38 77 -68 146 -66 154 14 74 13 91 -13 124 -14 18 -36
36 -49 40 -29 7 -42 36 -57 125 -25 142 9 214 184 385 179 175 414 391 440
406 38 20 80 -5 84 -50 3 -34 -3 -41 -115 -141 -195 -174 -397 -374 -382 -377
8 -1 155 6 326 17 l312 20 466 396 c256 218 469 404 475 414 15 28 -14 61 -53
60 -18 -1 -296 -18 -619 -39z"/>
<path d="M1830 3840 c-202 -172 -305 -253 -330 -260 -27 -7 -681 -51 -748 -50
-8 0 -11 -7 -9 -17 3 -10 10 -39 17 -64 10 -39 17 -48 40 -52 38 -8 87 -52
111 -99 16 -31 20 -55 17 -100 l-3 -59 49 -14 c27 -8 87 -15 133 -15 l83 0
-39 -77 c-91 -183 -134 -346 -151 -566 -32 -427 120 -848 419 -1159 250 -261
554 -416 909 -463 786 -104 1520 414 1694 1195 20 92 23 131 23 320 0 170 -4
233 -18 300 -154 721 -774 1230 -1499 1230 -102 0 -243 -12 -288 -25 -11 -4
-27 25 -60 110 -25 63 -47 115 -50 115 -3 0 -138 -113 -300 -250z m640 -377
l0 -306 -132 6 c-73 3 -182 14 -241 23 l-109 17 6 31 c12 58 116 250 174 321
84 103 137 151 205 185 105 52 97 75 97 -277z m210 275 c81 -40 172 -130 245
-241 53 -83 135 -252 135 -281 0 -21 -254 -56 -402 -56 l-78 0 0 305 c0 351
-8 328 100 273z m370 -62 c160 -64 344 -181 439 -279 l33 -35 -73 -36 c-57
-27 -246 -96 -264 -96 -1 0 -10 21 -20 48 -26 68 -112 239 -148 292 -16 25
-52 71 -80 103 -48 56 -48 58 -21 51 16 -3 76 -25 134 -48z m-1161 -390 c-16
-41 -26 -55 -37 -51 -8 3 -35 10 -59 17 l-45 11 78 41 c44 23 80 41 82 40 1 0
-7 -27 -19 -58z m1753 -53 c169 -223 271 -478 294 -735 l7 -78 -311 0 -311 0
-5 53 c-3 28 -8 93 -11 142 -8 123 -31 270 -60 393 -14 57 -25 107 -25 111 0
4 24 13 53 20 72 19 212 75 272 111 28 16 52 29 55 29 3 1 22 -20 42 -46z
m-1944 -68 c56 -19 109 -35 118 -35 12 0 15 -6 11 -22 -49 -199 -77 -384 -93
-600 l-6 -88 -310 0 -311 0 6 75 c15 175 70 356 157 522 l55 105 90 23 c50 13
108 30 130 38 22 9 42 16 45 16 3 1 51 -15 108 -34z m472 -100 c69 -8 154 -15
190 -15 36 0 75 -3 88 -6 l22 -6 0 -309 0 -309 -315 0 -314 0 5 83 c9 141 34
317 60 436 38 168 33 160 91 150 26 -5 104 -16 173 -24z m964 -83 c33 -138 55
-280 61 -407 3 -55 8 -112 10 -127 l5 -28 -315 0 -315 0 0 309 0 309 23 6 c12
3 51 6 87 6 66 0 276 22 360 38 25 5 48 7 52 5 3 -2 18 -52 32 -111z m-1400
-759 c13 -175 37 -360 63 -473 14 -63 26 -123 27 -133 1 -15 -20 -26 -104 -53
-57 -19 -142 -55 -189 -80 -46 -25 -87 -42 -90 -37 -3 5 -27 36 -52 69 -94
122 -166 262 -217 424 -33 103 -62 258 -62 327 l0 43 309 0 309 0 6 -87z m734
-230 l2 -311 -97 -7 c-84 -5 -164 -14 -394 -42 l-37 -5 -26 109 c-14 59 -32
151 -40 203 -18 110 -37 350 -30 362 3 5 143 7 312 6 l307 -3 3 -312z m735
310 c7 -14 -12 -247 -27 -349 -9 -54 -28 -150 -43 -212 l-26 -114 -36 5 c-225
28 -311 37 -393 42 l-98 7 0 307 c0 169 3 311 7 314 9 10 611 9 616 0z m733
-77 c-12 -144 -59 -315 -128 -465 -35 -78 -138 -242 -188 -300 -21 -24 -22
-24 -48 -7 -50 32 -170 86 -254 113 -46 14 -87 30 -91 33 -5 4 1 43 12 87 26
102 58 304 66 413 3 47 8 113 11 148 l6 62 310 0 311 0 -7 -84z m-1466 -967
l0 -311 -27 7 c-156 39 -319 220 -424 470 l-38 90 57 12 c63 13 280 35 400 41
l32 2 0 -311z m375 290 c163 -18 215 -29 215 -48 0 -33 -130 -277 -182 -342
-88 -110 -187 -184 -270 -204 l-28 -7 0 311 0 312 88 -6 c48 -3 128 -11 177
-16z m-960 -106 c48 -128 138 -287 218 -385 26 -32 47 -60 47 -63 0 -9 -176
58 -255 97 -106 53 -230 137 -307 207 l-61 57 77 38 c64 32 232 94 257 96 4 0
14 -21 24 -47z m1445 0 c109 -41 182 -80 177 -97 -5 -17 -132 -121 -207 -170
-109 -72 -242 -135 -357 -169 l-53 -16 50 60 c85 102 161 235 219 381 27 67
18 67 171 11z"/>
</g>
</svg>
